<svg width="100" height="100" viewBox="0 0 100 100" fill="none" xmlns="http://www.w3.org/2000/svg">
<circle cx="50" cy="50" r="49.5" fill="#1D1D1F" stroke="#EEEEEE"/>
<path d="M36.1301 24.7099H36.9865C36.952 23.6326 35.9644 22.8315 34.5901 22.8315C33.2227 22.8315 32.1591 23.6188 32.1591 24.8135C32.1591 25.7735 32.8498 26.3398 33.9616 26.6575L34.8249 26.8992C35.5707 27.1064 36.2268 27.3688 36.2268 28.0594C36.2268 28.826 35.4948 29.3301 34.521 29.3301C33.6785 29.3301 32.9395 28.9572 32.8705 28.163H31.9658C32.0487 29.337 32.9948 30.1243 34.521 30.1243C36.1578 30.1243 37.0832 29.2265 37.0832 28.0732C37.0832 26.7541 35.8401 26.3191 35.0873 26.1257L34.376 25.9323C33.8442 25.7942 33.0155 25.518 33.0155 24.7721C33.0155 24.1022 33.6301 23.6119 34.5625 23.6119C35.4119 23.6119 36.0542 24.0124 36.1301 24.7099ZM43.1643 25.1519H44.0483C43.7859 23.6878 42.6256 22.8315 41.1961 22.8315C39.3798 22.8315 38.0676 24.2265 38.0676 26.4641C38.0676 28.7017 39.3798 30.0967 41.1961 30.0967C42.6325 30.0967 43.7928 29.2265 44.0483 27.7831H43.1643C42.9571 28.75 42.1284 29.2749 41.1961 29.2749C39.9184 29.2749 38.924 28.2873 38.924 26.4641C38.924 24.6409 39.9184 23.6533 41.1961 23.6533C42.1284 23.6533 42.964 24.1782 43.1643 25.1519ZM45.2775 30H46.1545V27.2514H47.6946C47.7498 27.2514 47.8085 27.2514 47.8603 27.2479L49.3451 30H50.3672L48.7719 27.0891C49.6697 26.7783 50.091 26.0428 50.091 25.1036C50.091 23.8467 49.3382 22.9282 47.6808 22.9282H45.2775V30ZM46.1545 26.4572V23.7086H47.6462C48.7788 23.7086 49.2208 24.261 49.2208 25.1036C49.2208 25.9461 48.7788 26.4572 47.6531 26.4572H46.1545ZM57.3421 26.4641C57.3421 24.2265 56.023 22.8315 54.2137 22.8315C52.3974 22.8315 51.0852 24.2265 51.0852 26.4641C51.0852 28.7017 52.3974 30.0967 54.2137 30.0967C56.023 30.0967 57.3421 28.7017 57.3421 26.4641ZM51.9416 26.4641C51.9416 24.6409 52.936 23.6533 54.2137 23.6533C55.4913 23.6533 56.4858 24.6409 56.4858 26.4641C56.4858 28.2873 55.4913 29.2749 54.2137 29.2749C52.936 29.2749 51.9416 28.2873 51.9416 26.4641ZM58.6271 30H62.7845V29.2196H59.5041V22.9282H58.6271V30ZM63.9591 30H68.1166V29.2196H64.8362V22.9282H63.9591V30ZM37.7568 42C39.9115 42 41.127 40.6602 41.127 38.4503C41.127 36.2541 39.9115 34.9282 37.8466 34.9282H35.5607V42H37.7568ZM36.4377 41.2196V35.7086H37.7913C39.435 35.7086 40.2706 36.7445 40.2706 38.4503C40.2706 40.1699 39.435 41.2196 37.7015 41.2196H36.4377ZM48.3968 38.4641C48.3968 36.2265 47.0777 34.8315 45.2683 34.8315C43.452 34.8315 42.1399 36.2265 42.1399 38.4641C42.1399 40.7017 43.452 42.0967 45.2683 42.0967C47.0777 42.0967 48.3968 40.7017 48.3968 38.4641ZM42.9962 38.4641C42.9962 36.6409 43.9907 35.6533 45.2683 35.6533C46.546 35.6533 47.5404 36.6409 47.5404 38.4641C47.5404 40.2873 46.546 41.2749 45.2683 41.2749C43.9907 41.2749 42.9962 40.2873 42.9962 38.4641ZM50.9772 42H51.8888L53.4427 36.4061H53.498L55.0449 42H55.9565L57.8902 34.9282H56.9924L55.5214 40.6533H55.4593L53.9607 34.9282H52.9731L51.4814 40.6533H51.4123L49.9413 34.9282H49.0435L50.9772 42ZM64.437 34.9282H63.5738V40.4461H63.5047L59.6718 34.9282H58.8224V42H59.6995V36.4959H59.7685L63.5945 42H64.437V34.9282Z" fill="white"/>
<path d="M38 64L50.5 72L63 64" stroke="#EEEEEE" stroke-linecap="round" stroke-linejoin="round"/>
<path d="M38 73L50.5 81L63 73" stroke="#EEEEEE" stroke-linecap="round" stroke-linejoin="round"/>
</svg>
